<svg width="55" height="55" viewBox="0 0 55 55" fill="none" xmlns="http://www.w3.org/2000/svg">
<circle cx="27.5" cy="27.5" r="27.5" fill="#D8D8D8"/>
<path d="M17.7874 29.7753C17.7691 29.7935 17.7504 29.8121 17.7312 29.8312C17.5093 30.0518 17.2284 30.331 17.0288 30.6835C16.8291 31.0361 16.7342 31.4206 16.6593 31.7244C16.6525 31.752 16.6458 31.7789 16.6393 31.8051L15.6716 35.6756C15.6676 35.692 15.6633 35.7089 15.6589 35.7265C15.6052 35.9401 15.5308 36.236 15.5052 36.4979C15.4757 36.7993 15.466 37.4585 16.0038 37.9963C16.5416 38.5341 17.2007 38.5243 17.5021 38.4948C17.764 38.4692 18.0599 38.3948 18.2736 38.3411C18.2911 38.3367 18.308 38.3325 18.3244 38.3284L22.195 37.3607C22.2211 37.3542 22.248 37.3475 22.2756 37.3407C22.5794 37.2658 22.9639 37.1709 23.3165 36.9713C23.6691 36.7716 23.9483 36.4907 24.1688 36.2688C24.1889 36.2487 24.2084 36.229 24.2275 36.2099L34.7188 25.7186C34.7375 25.6999 34.7562 25.6812 34.7749 25.6625C35.2123 25.2253 35.6374 24.8004 35.9408 24.4027C36.2828 23.9544 36.6043 23.3741 36.6043 22.625C36.6043 21.8759 36.2828 21.2956 35.9408 20.8473C35.6374 20.4496 35.2123 20.0247 34.7749 19.5875C34.7562 19.5688 34.7375 19.5501 34.7188 19.5314L34.4686 19.2812C34.4499 19.2625 34.4312 19.2438 34.4125 19.2251C33.9753 18.7877 33.5504 18.3626 33.1528 18.0592C32.7045 17.7172 32.1241 17.3957 31.375 17.3957C30.6259 17.3957 30.0456 17.7172 29.5973 18.0592C29.1996 18.3626 28.7747 18.7877 28.3375 19.2251C28.3188 19.2438 28.3001 19.2625 28.2814 19.2812L17.7901 29.7726C17.7892 29.7735 17.7883 29.7744 17.7874 29.7753Z" stroke="#131313" stroke-width="2.91667"/>
<path d="M27.7292 20.4375L32.1042 17.5208L36.4792 21.8958L33.5625 26.2708L27.7292 20.4375Z" fill="#131313"/>
</svg>
