<svg width="30" height="30" viewBox="0 0 30 30" fill="none" xmlns="http://www.w3.org/2000/svg">
<path d="M17.6702 4.2018H18.9202V4.13945L18.914 4.07742L17.6702 4.2018ZM17.4797 3.17701L18.5906 2.60403L18.5906 2.60403L17.4797 3.17701ZM17.6702 4.20181H16.4202V4.26415L16.4264 4.32619L17.6702 4.20181ZM18.0388 6.02241L17.045 6.78055V6.78055L18.0388 6.02241ZM19.1993 6.5031L19.0327 5.26426V5.26426L19.1993 6.5031ZM20.7473 5.47641L19.9558 4.50897L19.9558 4.50897L20.7473 5.47641ZM21.6066 4.88648L21.2262 3.69577L21.2262 3.69577L21.6066 4.88648ZM22.484 4.93024L21.987 6.07719L21.987 6.07719L22.484 4.93024ZM23.2804 5.60275L22.3965 6.48663L22.3965 6.48663L23.2804 5.60275ZM24.3972 6.71958L25.2811 5.8357V5.8357L24.3972 6.71958ZM25.0697 7.51594L23.9228 8.01291V8.01292L25.0697 7.51594ZM25.1135 8.3933L23.9228 8.01291L23.9228 8.01292L25.1135 8.3933ZM24.5235 9.25263L23.5561 8.46108L24.5235 9.25263ZM23.4968 10.8007L24.7357 10.9673L24.7357 10.9673L23.4968 10.8007ZM23.9775 11.9612L24.7357 10.9673L24.7357 10.9673L23.9775 11.9612ZM25.7982 12.3298L25.6738 13.5736H25.6738L25.7982 12.3298ZM26.823 12.5203L26.25 13.6312H26.25L26.823 12.5203ZM27.4124 13.1716L28.5749 12.712V12.712L27.4124 13.1716ZM27.4125 16.8283L28.575 17.2878L27.4125 16.8283ZM26.8229 17.4798L27.3958 18.5907L26.8229 17.4798ZM25.7983 17.6702L25.9227 18.914H25.9227L25.7983 17.6702ZM23.9782 18.0386L24.7361 19.0326L24.7361 19.0326L23.9782 18.0386ZM23.4973 19.1995L24.7361 19.0326V19.0326L23.4973 19.1995ZM24.5237 20.747L23.5563 21.5385L23.5957 21.5868L23.6398 21.6308L24.5237 20.747ZM24.5237 20.747L25.4912 19.9554L25.4517 19.9072L25.4076 19.8631L24.5237 20.747ZM25.1135 21.606L26.3042 21.2254L26.3041 21.2254L25.1135 21.606ZM25.0697 22.4837L26.2166 22.9808L26.2166 22.9808L25.0697 22.4837ZM22.4841 25.0692L21.9871 23.9223L21.9871 23.9223L22.4841 25.0692ZM21.6067 25.113L21.9871 23.9223L21.9871 23.9223L21.6067 25.113ZM20.7474 24.523L19.8635 25.4069L19.9076 25.451L19.9559 25.4905L20.7474 24.523ZM20.7474 24.523L21.6313 23.6391L21.5872 23.5951L21.5389 23.5556L20.7474 24.523ZM19.1994 23.4963L19.366 22.2575H19.366L19.1994 23.4963ZM18.0389 23.977L19.0327 24.7352L19.0327 24.7352L18.0389 23.977ZM17.4796 26.8231L16.3688 26.25L16.3688 26.25L17.4796 26.8231ZM16.8285 27.4124L17.2882 28.5748H17.2882L16.8285 27.4124ZM13.1716 27.4124L13.6312 26.25H13.6312L13.1716 27.4124ZM12.5203 26.823L11.4094 27.396L11.4094 27.396L12.5203 26.823ZM12.3298 25.7982L13.5736 25.6738L12.3298 25.7982ZM11.9611 23.9775L10.9673 24.7357L10.9673 24.7357L11.9611 23.9775ZM10.8007 23.4968L10.6341 22.258H10.6341L10.8007 23.4968ZM9.25259 24.5236L8.46105 23.5561H8.46105L9.25259 24.5236ZM8.39323 25.1135L8.77359 26.3043L8.7736 26.3043L8.39323 25.1135ZM7.5159 25.0698L7.01894 26.2167L7.01894 26.2168L7.5159 25.0698ZM6.71952 24.3972L5.83564 25.2811H5.83564L6.71952 24.3972ZM5.60271 23.2804L4.66199 24.1036L4.6894 24.1349L4.71883 24.1643L5.60271 23.2804ZM5.6027 23.2804L6.54342 22.4573L6.51601 22.426L6.48658 22.3965L5.6027 23.2804ZM4.93017 22.4841L6.07714 21.9871L6.07713 21.9871L4.93017 22.4841ZM4.88642 21.6067L6.07713 21.9871L6.07714 21.9871L4.88642 21.6067ZM5.47638 20.7474L4.50893 19.9558L4.50893 19.9558L5.47638 20.7474ZM6.50309 19.1993L5.26425 19.0327V19.0327L6.50309 19.1993ZM6.0224 18.0388L5.26425 19.0327V19.0327L6.0224 18.0388ZM4.20179 17.6702L4.07741 18.914H4.07741L4.20179 17.6702ZM3.17702 17.4797L2.60403 18.5906H2.60403L3.17702 17.4797ZM2.58756 16.8284L1.42512 17.288L1.42512 17.288L2.58756 16.8284ZM2.58761 13.1715L3.75 13.6312L3.75 13.6312L2.58761 13.1715ZM3.1769 12.5204L2.60381 11.4095L2.60381 11.4095L3.1769 12.5204ZM4.20194 12.3298L4.07756 11.086H4.07756L4.20194 12.3298ZM6.02302 11.961L5.26472 10.9673L5.26472 10.9673L6.02302 11.961ZM6.50358 10.8008L7.74245 10.6344L7.74245 10.6344L6.50358 10.8008ZM5.4766 9.25227L4.50915 10.0438L5.4766 9.25227ZM4.88642 8.39257L6.07719 8.01235L6.07719 8.01235L4.88642 8.39257ZM4.93016 7.51554L6.07719 8.01235L6.07719 8.01235L4.93016 7.51554ZM5.60292 6.71886L6.4868 7.60274L6.4868 7.60274L5.60292 6.71886ZM6.71957 5.60221L5.96957 4.60221L5.8985 4.65551L5.83568 4.71833L6.71957 5.60221ZM6.71957 5.60221L7.46957 6.60221L7.54064 6.54891L7.60345 6.48609L6.71957 5.60221ZM7.51596 4.92966L7.019 3.78269L7.019 3.78269L7.51596 4.92966ZM8.39329 4.8859L8.01292 6.07663L8.01292 6.07663L8.39329 4.8859ZM9.25274 5.47595L8.4612 6.4434L8.4612 6.4434L9.25274 5.47595ZM10.8006 6.50258L10.6337 7.7414L10.6337 7.7414L10.8006 6.50258ZM11.9613 6.02177L10.9674 5.26377L10.9674 5.26377L11.9613 6.02177ZM12.3298 4.20164L13.5736 4.32602L13.5798 4.26398V4.20164H12.3298ZM12.3298 4.20163L11.086 4.07725L11.0798 4.13929V4.20163H12.3298ZM12.5202 3.17713L11.4092 2.60426L11.4092 2.60426L12.5202 3.17713ZM13.1718 2.58751L13.6312 3.75V3.75L13.1718 2.58751ZM16.8284 2.58756L17.288 1.42512L17.288 1.42512L16.8284 2.58756ZM18.914 4.07742C18.8885 3.82289 18.864 3.57117 18.8283 3.3585C18.7905 3.13354 18.7285 2.87131 18.5906 2.60403L16.3688 3.75C16.3401 3.69436 16.3462 3.67348 16.3628 3.77248C16.3815 3.88377 16.3976 4.03861 16.4264 4.32618L18.914 4.07742ZM18.9202 4.20181V4.2018H16.4202V4.20181H18.9202ZM19.0327 5.26426C19.1117 5.36791 19.0866 5.41377 19.0427 5.16994C19.001 4.93806 18.9674 4.61144 18.914 4.07743L16.4264 4.32619C16.4756 4.81825 16.519 5.26119 16.5822 5.61272C16.6433 5.9523 16.7512 6.39542 17.045 6.78055L19.0327 5.26426ZM19.0327 5.26426L19.0327 5.26426L17.045 6.78055C17.5898 7.49469 18.4758 7.86169 19.366 7.74194L19.0327 5.26426ZM19.9558 4.50897C19.5404 4.84881 19.2857 5.05601 19.0923 5.19047C18.8888 5.33185 18.9035 5.28164 19.0327 5.26426L19.366 7.74194C19.8461 7.67735 20.2357 7.44029 20.519 7.24338C20.8123 7.03954 21.1562 6.757 21.5389 6.44386L19.9558 4.50897ZM21.2262 3.69577C20.9398 3.78729 20.7105 3.92886 20.5247 4.06121C20.3491 4.18634 20.1538 4.34699 19.9558 4.50897L21.5389 6.44386C21.7626 6.26086 21.8835 6.16278 21.9754 6.0973C22.0571 6.03905 22.0467 6.05814 21.987 6.07719L21.2262 3.69577ZM22.981 3.78329C22.4259 3.54277 21.8025 3.51167 21.2262 3.69577L21.987 6.07719V6.07719L22.981 3.78329ZM24.1642 4.71887C23.9834 4.538 23.805 4.3587 23.6427 4.21672C23.471 4.06654 23.257 3.90286 22.981 3.78329L21.987 6.07719C21.9296 6.0523 21.9211 6.03227 21.9967 6.09836C22.0816 6.17266 22.1921 6.28228 22.3965 6.48663L24.1642 4.71887ZM25.2811 5.8357L24.1642 4.71886L22.3965 6.48663L23.5133 7.60347L25.2811 5.8357ZM26.2167 7.01897C26.0971 6.74301 25.9334 6.52895 25.7832 6.35726C25.6413 6.19496 25.462 6.01658 25.2811 5.8357L23.5133 7.60347C23.7177 7.80782 23.8273 7.91836 23.9016 8.0033C23.9677 8.07885 23.9477 8.07036 23.9228 8.01291L26.2167 7.01897ZM26.3042 8.77369C26.4883 8.19745 26.4572 7.57402 26.2167 7.01896L23.9228 8.01292L23.9228 8.01291L26.3042 8.77369ZM25.491 10.0442C25.653 9.8462 25.8136 9.65086 25.9387 9.47523C26.0711 9.28945 26.2127 9.06017 26.3042 8.77368L23.9228 8.01292C23.9418 7.95329 23.9609 7.94284 23.9027 8.0246C23.8372 8.11651 23.7391 8.23741 23.5561 8.46108L25.491 10.0442ZM24.7357 10.9673C24.7183 11.0965 24.6681 11.1112 24.8095 10.9077C24.9439 10.7143 25.1511 10.4596 25.491 10.0442L23.5561 8.46108C23.2429 8.84382 22.9604 9.1877 22.7565 9.48101C22.5596 9.76435 22.3226 10.154 22.258 10.6341L24.7357 10.9673ZM24.7357 10.9673V10.9673L22.258 10.6341C22.1382 11.5242 22.5052 12.4102 23.2193 12.955L24.7357 10.9673ZM25.9226 11.086C25.3885 11.0326 25.0619 10.999 24.83 10.9573C24.5862 10.9134 24.632 10.8883 24.7357 10.9673L23.2193 12.955C23.6045 13.2488 24.0476 13.3567 24.3872 13.4178C24.7388 13.481 25.1817 13.5244 25.6738 13.5736L25.9226 11.086ZM27.396 11.4094C27.1287 11.2715 26.8665 11.2095 26.6415 11.1717C26.4288 11.136 26.1771 11.1115 25.9225 11.086L25.6738 13.5736C25.9614 13.6024 26.1162 13.6185 26.2275 13.6372C26.3265 13.6538 26.3056 13.6599 26.25 13.6312L27.396 11.4094ZM28.5749 12.712C28.3524 12.1495 27.9336 11.6867 27.396 11.4094L26.25 13.6312V13.6312L28.5749 12.712ZM28.75 14.2103C28.75 13.9545 28.7506 13.7016 28.7363 13.4864C28.7211 13.2588 28.6855 12.9917 28.5749 12.712L26.25 13.6312C26.227 13.573 26.2351 13.5528 26.2418 13.653C26.2494 13.7656 26.25 13.9213 26.25 14.2103H28.75ZM28.75 15.7899V14.2103H26.25V15.7899H28.75ZM28.575 17.2878C28.6855 17.0082 28.7211 16.7411 28.7363 16.5136C28.7506 16.2984 28.75 16.0456 28.75 15.7899H26.25C26.25 16.0788 26.2494 16.2344 26.2418 16.347C26.2352 16.4471 26.227 16.427 26.25 16.3688L28.575 17.2878ZM27.3958 18.5907C27.9336 18.3134 28.3525 17.8505 28.575 17.2878L26.25 16.3688V16.3688L27.3958 18.5907ZM25.9227 18.914C26.1771 18.8885 26.4288 18.864 26.6415 18.8283C26.8664 18.7905 27.1285 18.7285 27.3958 18.5907L26.25 16.3688C26.3056 16.3401 26.3265 16.3462 26.2275 16.3628C26.1162 16.3815 25.9614 16.3976 25.6739 16.4264L25.9227 18.914ZM24.7361 19.0326C24.6325 19.1117 24.5867 19.0865 24.8304 19.0426C25.0623 19.0009 25.3888 18.9674 25.9227 18.914L25.6739 16.4264C25.182 16.4756 24.7392 16.5189 24.3877 16.5822C24.0483 16.6432 23.6053 16.751 23.2202 17.0447L24.7361 19.0326ZM24.7361 19.0326L24.7361 19.0326L23.2202 17.0447C22.5057 17.5895 22.1386 18.4759 22.2585 19.3664L24.7361 19.0326ZM25.4912 19.9554C25.1514 19.5402 24.9443 19.2856 24.8099 19.0922C24.6686 18.8888 24.7187 18.9035 24.7361 19.0326L22.2585 19.3664C22.3232 19.8463 22.5602 20.2357 22.757 20.519C22.9608 20.8122 23.2432 21.1559 23.5563 21.5385L25.4912 19.9554ZM25.4076 19.8631L25.4076 19.8631L23.6398 21.6308L23.6398 21.6309L25.4076 19.8631ZM26.3041 21.2254C26.2126 20.9391 26.0711 20.7099 25.9388 20.5242C25.8137 20.3486 25.6531 20.1533 25.4912 19.9554L23.5563 21.5385C23.7392 21.7621 23.8373 21.883 23.9027 21.9748C23.961 22.0566 23.9419 22.0461 23.9228 21.9865L26.3041 21.2254ZM26.2166 22.9808C26.4573 22.4256 26.4884 21.8019 26.3042 21.2254L23.9228 21.9865V21.9865L26.2166 22.9808ZM25.2813 24.1636C25.4621 23.9828 25.6413 23.8045 25.7833 23.6422C25.9334 23.4706 26.097 23.2566 26.2166 22.9808L23.9228 21.9865C23.9477 21.9291 23.9677 21.9206 23.9017 21.9961C23.8274 22.0811 23.7178 22.1915 23.5135 22.3958L25.2813 24.1636ZM24.1643 25.2806L25.2813 24.1636L23.5135 22.3958L22.3965 23.5128L24.1643 25.2806ZM22.9811 26.2162C23.257 26.0966 23.4711 25.9329 23.6428 25.7827C23.8051 25.6407 23.9834 25.4615 24.1643 25.2806L22.3965 23.5128C22.1922 23.7172 22.0816 23.8268 21.9967 23.9011C21.9212 23.9672 21.9297 23.9471 21.9871 23.9223L22.9811 26.2162ZM21.2263 26.3037C21.8025 26.4878 22.426 26.4567 22.9811 26.2162L21.9871 23.9223H21.9871L21.2263 26.3037ZM19.9559 25.4905C20.1538 25.6525 20.3492 25.8131 20.5248 25.9382C20.7106 26.0706 20.9398 26.2122 21.2263 26.3037L21.9871 23.9223C22.0467 23.9413 22.0572 23.9604 21.9754 23.9021C21.8835 23.8367 21.7626 23.7386 21.539 23.5556L19.9559 25.4905ZM19.8635 25.4069L19.8635 25.4069L21.6313 23.6392L21.6313 23.6391L19.8635 25.4069ZM19.0327 24.7352C18.9035 24.7178 18.8889 24.6676 19.0923 24.809C19.2858 24.9434 19.5405 25.1506 19.9558 25.4905L21.5389 23.5556C21.1562 23.2424 20.8123 22.9599 20.519 22.7561C20.2357 22.5592 19.8461 22.3221 19.366 22.2575L19.0327 24.7352ZM19.0327 24.7352H19.0327L19.366 22.2575C18.4758 22.1378 17.5898 22.5048 17.045 23.2189L19.0327 24.7352ZM18.914 25.9223C18.9674 25.3882 19.001 25.0615 19.0427 24.8296C19.0866 24.5857 19.1118 24.6315 19.0327 24.7352L17.045 23.2189C16.7512 23.604 16.6434 24.0472 16.5823 24.3868C16.519 24.7384 16.4756 25.1814 16.4264 25.6735L18.914 25.9223ZM18.5905 27.3962C18.7284 27.1289 18.7905 26.8665 18.8283 26.6415C18.864 26.4288 18.8885 26.1769 18.914 25.9223L16.4264 25.6735C16.3976 25.9612 16.3815 26.1161 16.3628 26.2275C16.3462 26.3266 16.34 26.3057 16.3688 26.25L18.5905 27.3962ZM17.2882 28.5748C17.8506 28.3524 18.3132 27.9337 18.5905 27.3962L16.3688 26.25H16.3688L17.2882 28.5748ZM15.7895 28.75C16.0454 28.75 16.2984 28.7506 16.5136 28.7363C16.7413 28.7211 17.0085 28.6854 17.2882 28.5748L16.3688 26.25C16.427 26.227 16.4472 26.2351 16.347 26.2418C16.2344 26.2494 16.0786 26.25 15.7895 26.25V28.75ZM14.2103 28.75H15.7895V26.25H14.2103V28.75ZM12.712 28.5749C12.9917 28.6855 13.2588 28.7211 13.4864 28.7363C13.7016 28.7506 13.9545 28.75 14.2103 28.75V26.25C13.9213 26.25 13.7656 26.2494 13.653 26.2418C13.5528 26.2351 13.573 26.227 13.6312 26.25L12.712 28.5749ZM11.4094 27.396C11.6867 27.9336 12.1495 28.3524 12.712 28.5749L13.6312 26.25L11.4094 27.396ZM11.086 25.9226C11.1115 26.1771 11.136 26.4288 11.1717 26.6415C11.2095 26.8665 11.2715 27.1287 11.4094 27.396L13.6312 26.25C13.6599 26.3056 13.6538 26.3265 13.6372 26.2275C13.6185 26.1162 13.6024 25.9614 13.5736 25.6738L11.086 25.9226ZM10.9673 24.7357C10.8883 24.632 10.9134 24.5862 10.9573 24.83C10.999 25.0619 11.0326 25.3885 11.086 25.9226L13.5736 25.6738C13.5244 25.1817 13.481 24.7388 13.4178 24.3872C13.3567 24.0476 13.2488 23.6045 12.955 23.2193L10.9673 24.7357ZM10.9673 24.7357H10.9673L12.955 23.2193C12.4102 22.5052 11.5242 22.1383 10.6341 22.258L10.9673 24.7357ZM10.0441 25.491C10.4595 25.1512 10.7143 24.9439 10.9077 24.8095C11.1112 24.6681 11.0965 24.7183 10.9673 24.7357L10.6341 22.258C10.154 22.3226 9.76436 22.5596 9.48101 22.7566C9.18769 22.9604 8.8438 23.243 8.46105 23.5561L10.0441 25.491ZM8.7736 26.3043C9.06009 26.2127 9.28938 26.0712 9.47517 25.9388C9.65081 25.8137 9.84616 25.653 10.0441 25.491L8.46105 23.5561C8.23736 23.7391 8.11646 23.8372 8.02454 23.9027C7.94278 23.961 7.95323 23.9419 8.01286 23.9228L8.7736 26.3043ZM7.01894 26.2168C7.57398 26.4572 8.19738 26.4883 8.77359 26.3043L8.01287 23.9228H8.01286L7.01894 26.2168ZM5.83564 25.2811C6.01652 25.462 6.19491 25.6413 6.35722 25.7833C6.52891 25.9335 6.74298 26.0972 7.01894 26.2167L8.01287 23.9228C8.0703 23.9477 8.0788 23.9677 8.00324 23.9017C7.9183 23.8273 7.80776 23.7177 7.6034 23.5134L5.83564 25.2811ZM5.83563 25.2811L5.83564 25.2811L7.6034 23.5134L7.60339 23.5134L5.83563 25.2811ZM4.71883 24.1643L5.83563 25.2811L7.60339 23.5134L6.48659 22.3966L4.71883 24.1643ZM4.66198 24.1036L4.66199 24.1036L6.54343 22.4573L6.54342 22.4573L4.66198 24.1036ZM3.78321 22.981C3.90278 23.257 4.06647 23.4711 4.21666 23.6427C4.35864 23.805 4.53794 23.9834 4.71882 24.1643L6.48658 22.3965C6.28223 22.1922 6.1726 22.0816 6.0983 21.9967C6.03221 21.9212 6.05225 21.9297 6.07714 21.9871L3.78321 22.981ZM3.6957 21.2263C3.51162 21.8026 3.54271 22.426 3.78321 22.981L6.07713 21.9871L6.07713 21.9871L3.6957 21.2263ZM4.50893 19.9558C4.34695 20.1538 4.18629 20.3491 4.06116 20.5248C3.92879 20.7106 3.78721 20.9399 3.6957 21.2263L6.07714 21.9871C6.05809 22.0467 6.03899 22.0572 6.09724 21.9754C6.16273 21.8835 6.26081 21.7626 6.44383 21.5389L4.50893 19.9558ZM5.26425 19.0327C5.28163 18.9034 5.33185 18.8888 5.19046 19.0923C5.056 19.2857 4.84879 19.5404 4.50893 19.9558L6.44383 21.5389C6.75698 21.1562 7.03952 20.8123 7.24337 20.519C7.44028 20.2357 7.67735 19.846 7.74193 19.366L5.26425 19.0327ZM5.26425 19.0327L5.26425 19.0327L7.74193 19.366C7.86168 18.4758 7.49468 17.5898 6.78056 17.045L5.26425 19.0327ZM4.07741 18.914C4.61143 18.9674 4.93805 19.001 5.16993 19.0427C5.41376 19.0866 5.3679 19.1117 5.26425 19.0327L6.78056 17.045C6.39542 16.7512 5.9523 16.6433 5.61271 16.5822C5.26118 16.519 4.81823 16.4756 4.32617 16.4264L4.07741 18.914ZM2.60403 18.5906C2.87131 18.7285 3.13354 18.7905 3.3585 18.8283C3.57116 18.864 3.82289 18.8885 4.07741 18.914L4.32617 16.4264C4.03861 16.3976 3.88377 16.3815 3.77248 16.3628C3.67348 16.3462 3.69437 16.3401 3.75 16.3688L2.60403 18.5906ZM1.42512 17.288C1.64754 17.8505 2.0664 18.3134 2.60403 18.5906L3.75 16.3688H3.75L1.42512 17.288ZM1.25 15.7897C1.25 16.0455 1.24935 16.2984 1.26372 16.5136C1.27892 16.7412 1.31454 17.0083 1.42512 17.288L3.75 16.3688C3.77302 16.427 3.76486 16.4472 3.75817 16.347C3.75065 16.2344 3.75 16.0787 3.75 15.7897H1.25ZM1.25 14.2104V15.7897H3.75V14.2104H1.25ZM1.42521 12.7118C1.31458 12.9915 1.27894 13.2587 1.26373 13.4864C1.24935 13.7016 1.25 13.9546 1.25 14.2104H3.75C3.75 13.9214 3.75065 13.7656 3.75817 13.653C3.76486 13.5528 3.77303 13.573 3.75 13.6312L1.42521 12.7118ZM2.60381 11.4095C2.06635 11.6867 1.64762 12.1494 1.42521 12.7118L3.75 13.6312L3.75 13.6312L2.60381 11.4095ZM4.07756 11.086C3.82297 11.1115 3.57118 11.136 3.35846 11.1717C3.13345 11.2095 2.87115 11.2715 2.60381 11.4095L3.75 13.6312C3.69435 13.6599 3.67346 13.6538 3.77248 13.6372C3.8838 13.6185 4.03868 13.6024 4.32632 13.5736L4.07756 11.086ZM5.26472 10.9673C5.36839 10.8882 5.41426 10.9134 5.17038 10.9573C4.93844 10.999 4.61173 11.0326 4.07756 11.086L4.32632 13.5736C4.81852 13.5244 5.26158 13.481 5.6132 13.4177C5.95288 13.3566 6.39612 13.2487 6.78132 12.9547L5.26472 10.9673ZM5.26472 10.9673L5.26472 10.9673L6.78132 12.9547C7.49516 12.41 7.86203 11.5243 7.74245 10.6344L5.26472 10.9673ZM4.50915 10.0438C4.84911 10.4593 5.05639 10.7141 5.19089 10.9077C5.33233 11.1112 5.28209 11.0965 5.26472 10.9673L7.74245 10.6344C7.67792 10.1541 7.44079 9.76439 7.24383 9.48097C7.03993 9.18758 6.7573 8.84359 6.44404 8.46073L4.50915 10.0438ZM3.69565 8.77278C3.78716 9.05939 3.92878 9.28877 4.06119 9.47463C4.18637 9.65033 4.3471 9.84575 4.50915 10.0438L6.44404 8.46073C6.26096 8.23695 6.16283 8.11599 6.09731 8.02404C6.03904 7.94224 6.05814 7.95269 6.07719 8.01235L3.69565 8.77278ZM3.78313 7.01873C3.5428 7.57359 3.51172 8.19676 3.69565 8.77278L6.07719 8.01235V8.01235L3.78313 7.01873ZM4.71903 5.83498C4.53809 6.01592 4.35872 6.19437 4.21669 6.35674C4.06644 6.5285 3.90271 6.74265 3.78313 7.01873L6.07719 8.01235C6.0523 8.06982 6.03225 8.07831 6.09837 8.00273C6.1727 7.91776 6.28237 7.80718 6.4868 7.60274L4.71903 5.83498ZM5.83568 4.71833L4.71903 5.83498L6.4868 7.60274L7.60345 6.48609L5.83568 4.71833ZM5.96957 4.60221L5.96957 4.60221L7.46957 6.60221L7.46957 6.60221L5.96957 4.60221ZM7.019 3.78269C6.74303 3.90227 6.52896 4.06596 6.35727 4.21615C6.19496 4.35814 6.01657 4.53744 5.83569 4.71832L7.60345 6.48609C7.80782 6.28173 7.91836 6.1721 8.0033 6.0978C8.07886 6.0317 8.07036 6.05174 8.01292 6.07663L7.019 3.78269ZM8.77365 3.69518C8.19744 3.51111 7.57403 3.54221 7.019 3.78269L8.01292 6.07663L8.01292 6.07663L8.77365 3.69518ZM10.0443 4.50851C9.84627 4.34649 9.65091 4.18581 9.47526 4.06067C9.28947 3.9283 9.06016 3.7867 8.77365 3.69518L8.01292 6.07663C7.95327 6.05757 7.94282 6.03847 8.02461 6.09675C8.11655 6.16225 8.23748 6.26036 8.4612 6.4434L10.0443 4.50851ZM10.9674 5.26377C11.0966 5.28117 11.1112 5.33137 10.9078 5.18997C10.7143 5.05551 10.4596 4.84832 10.0443 4.50851L8.4612 6.4434C8.8439 6.75652 9.18772 7.03902 9.48097 7.24283C9.76423 7.43971 10.1537 7.67676 10.6337 7.7414L10.9674 5.26377ZM10.9674 5.26377L10.6337 7.7414C11.5241 7.86132 12.4104 7.4942 12.9553 6.77978L10.9674 5.26377ZM11.086 4.07726C11.0327 4.61113 10.9991 4.93766 10.9574 5.16948C10.9135 5.41324 10.8884 5.3674 10.9674 5.26377L12.9553 6.77978C13.2489 6.3947 13.3568 5.9517 13.4178 5.6122C13.4811 5.26077 13.5244 4.81794 13.5736 4.32602L11.086 4.07726ZM11.0798 4.20163V4.20164H13.5798V4.20163H11.0798ZM11.4092 2.60426C11.2714 2.87148 11.2095 3.13364 11.1717 3.35854C11.136 3.57115 11.1115 3.8228 11.086 4.07725L13.5736 4.32601C13.6024 4.03853 13.6185 3.88373 13.6372 3.77247C13.6538 3.6735 13.6599 3.69438 13.6312 3.75L11.4092 2.60426ZM12.7123 1.42502C12.1495 1.64745 11.6866 2.06644 11.4092 2.60426L13.6312 3.75L13.6312 3.75L12.7123 1.42502ZM14.2101 1.25C13.9544 1.25 13.7016 1.24935 13.4865 1.26372C13.2589 1.27891 12.9919 1.31451 12.7123 1.42502L13.6312 3.75C13.573 3.773 13.5529 3.76485 13.653 3.75816C13.7656 3.75065 13.9212 3.75 14.2101 3.75V1.25ZM15.7897 1.25H14.2101V3.75H15.7897V1.25ZM17.288 1.42512C17.0083 1.31454 16.7412 1.27892 16.5136 1.26372C16.2984 1.24935 16.0455 1.25 15.7897 1.25V3.75C16.0787 3.75 16.2344 3.75065 16.347 3.75817C16.4472 3.76486 16.427 3.77302 16.3688 3.75L17.288 1.42512ZM18.5906 2.60403C18.3134 2.06639 17.8505 1.64754 17.288 1.42512L16.3688 3.75L16.3688 3.75L18.5906 2.60403ZM18.75 15C18.75 17.0711 17.0711 18.75 15 18.75V21.25C18.4518 21.25 21.25 18.4518 21.25 15H18.75ZM15 11.25C17.0711 11.25 18.75 12.9289 18.75 15H21.25C21.25 11.5482 18.4518 8.75 15 8.75V11.25ZM11.25 15C11.25 12.9289 12.9289 11.25 15 11.25V8.75C11.5482 8.75 8.75 11.5482 8.75 15H11.25ZM15 18.75C12.9289 18.75 11.25 17.0711 11.25 15H8.75C8.75 18.4518 11.5482 21.25 15 21.25V18.75Z" fill="#838383"/>
</svg>
