<svg width="17" height="17" viewBox="0 0 17 17" fill="none" xmlns="http://www.w3.org/2000/svg">
<path fill-rule="evenodd" clip-rule="evenodd" d="M11.2768 9.06591C11.3139 8.88307 11.3334 8.69385 11.3334 8.50008C11.3334 6.93527 10.0648 5.66675 8.50002 5.66675C8.30625 5.66675 8.11703 5.6862 7.93419 5.72326L11.2768 9.06591ZM6.13898 6.93324C5.84056 7.38202 5.66669 7.92075 5.66669 8.50008C5.66669 10.0649 6.93521 11.3334 8.50002 11.3334C9.07936 11.3334 9.61808 11.1595 10.0669 10.8611L9.02287 9.81714C8.8611 9.88141 8.68469 9.91675 8.50002 9.91675C7.71762 9.91675 7.08335 9.28248 7.08335 8.50008C7.08335 8.31541 7.11869 8.139 7.18296 7.97723L6.13898 6.93324Z" fill="#838383"/>
<path fill-rule="evenodd" clip-rule="evenodd" d="M11.7011 12.4954L10.6603 11.4547C9.97168 11.8154 9.24215 12.0417 8.50002 12.0417C7.41924 12.0417 6.36521 11.5618 5.42524 10.8855C4.49086 10.2133 3.72874 9.38962 3.24691 8.80463C3.17624 8.71883 3.12346 8.65464 3.07974 8.59819C3.04512 8.5535 3.02308 8.52238 3.0087 8.50008C3.02308 8.47779 3.04512 8.44666 3.07974 8.40197C3.12346 8.34552 3.17624 8.28133 3.24691 8.19553C3.71825 7.62328 4.4578 6.82265 5.36444 6.15878L4.35243 5.14676C3.39748 5.87653 2.63676 6.70803 2.15341 7.29487C2.1367 7.31516 2.11928 7.33602 2.10136 7.35749C1.87935 7.62342 1.57941 7.98269 1.57941 8.50008C1.57941 9.01747 1.87935 9.37674 2.10136 9.64267C2.11928 9.66414 2.1367 9.685 2.15341 9.70529C2.67748 10.3416 3.52764 11.2655 4.59788 12.0355C5.66254 12.8015 7.00548 13.4584 8.50002 13.4584C9.68295 13.4584 10.7709 13.0468 11.7011 12.4954ZM6.23818 4.02731C6.93504 3.73209 7.69557 3.54175 8.50002 3.54175C9.99455 3.54175 11.3375 4.19871 12.4022 4.96468C13.4724 5.73468 14.3226 6.65859 14.8466 7.29487C14.8633 7.31516 14.8808 7.33602 14.8987 7.35749C15.1207 7.62342 15.4206 7.98269 15.4206 8.50008C15.4206 9.01747 15.1207 9.37674 14.8987 9.64267C14.8808 9.66414 14.8633 9.685 14.8466 9.70529C14.5019 10.1238 14.0161 10.6668 13.4194 11.2085L12.4164 10.2055C12.9688 9.70994 13.4257 9.20218 13.7531 8.80463C13.8238 8.71883 13.8766 8.65464 13.9203 8.59819C13.9549 8.5535 13.977 8.52238 13.9913 8.50008C13.977 8.47779 13.9549 8.44666 13.9203 8.40197C13.8766 8.34552 13.8238 8.28133 13.7531 8.19553C13.2713 7.61054 12.5092 6.78689 11.5748 6.11465C10.6348 5.43838 9.58079 4.95841 8.50002 4.95841C8.10972 4.95841 7.72291 5.02101 7.34371 5.13283L6.23818 4.02731Z" fill="#838383"/>
<path d="M3.54169 1.41675L14.875 12.7501" stroke="#838383" stroke-width="1.41667"/>
</svg>
